<svg width="800" height="800" viewBox="0 0 800 800" fill="none" xmlns="http://www.w3.org/2000/svg">
<g clip-path="url(#clip0_35_3)">
<path d="M687.869 0H112.149C102.531 0 94.7249 7.8059 94.7249 17.4239V782.576C94.7249 792.194 102.531 800 112.149 800H280.943C290.561 800 298.367 792.194 298.367 782.576V643.934H501.642V782.576C501.642 792.194 509.448 800 519.066 800H687.86C697.478 800 705.284 792.194 705.284 782.576V17.4239C705.293 7.79719 697.478 0 687.869 0ZM287.477 513.978C287.477 521.201 281.631 527.046 274.409 527.046H196.724C189.502 527.046 183.656 521.201 183.656 513.978V436.294C183.656 429.072 189.502 423.226 196.724 423.226H274.409C281.631 423.226 287.477 429.072 287.477 436.294V513.978ZM287.477 349.54C287.477 356.763 281.631 362.608 274.409 362.608H196.724C189.502 362.608 183.656 356.763 183.656 349.54V271.856C183.656 264.634 189.502 258.788 196.724 258.788H274.409C281.631 258.788 287.477 264.634 287.477 271.856V349.54ZM287.477 185.103C287.477 192.325 281.631 198.17 274.409 198.17H196.724C189.502 198.17 183.656 192.325 183.656 185.103V107.418C183.656 100.196 189.502 94.3503 196.724 94.3503H274.409C281.631 94.3503 287.477 100.196 287.477 107.418V185.103ZM451.914 513.978C451.914 521.201 446.069 527.046 438.847 527.046H361.162C353.94 527.046 348.094 521.201 348.094 513.978V436.294C348.094 429.072 353.94 423.226 361.162 423.226H438.847C446.069 423.226 451.914 429.072 451.914 436.294V513.978ZM451.914 349.54C451.914 356.763 446.069 362.608 438.847 362.608H361.162C353.94 362.608 348.094 356.763 348.094 349.54V271.856C348.094 264.634 353.94 258.788 361.162 258.788H438.847C446.069 258.788 451.914 264.634 451.914 271.856V349.54ZM451.914 185.103C451.914 192.325 446.069 198.17 438.847 198.17H361.162C353.94 198.17 348.094 192.325 348.094 185.103V107.418C348.094 100.196 353.94 94.3503 361.162 94.3503H438.847C446.069 94.3503 451.914 100.196 451.914 107.418V185.103ZM616.352 513.978C616.352 521.201 610.507 527.046 603.284 527.046H525.6C518.378 527.046 512.532 521.201 512.532 513.978V436.294C512.532 429.072 518.378 423.226 525.6 423.226H603.284C610.507 423.226 616.352 429.072 616.352 436.294V513.978ZM616.352 349.54C616.352 356.763 610.507 362.608 603.284 362.608H525.6C518.378 362.608 512.532 356.763 512.532 349.54V271.856C512.532 264.634 518.378 258.788 525.6 258.788H603.284C610.507 258.788 616.352 264.634 616.352 271.856V349.54ZM616.352 185.103C616.352 192.325 610.507 198.17 603.284 198.17H525.6C518.378 198.17 512.532 192.325 512.532 185.103V107.418C512.532 100.196 518.378 94.3503 525.6 94.3503H603.284C610.507 94.3503 616.352 100.196 616.352 107.418V185.103Z" fill="#FC7F7F"/>
</g>
<defs>
<clipPath id="clip0_35_3">
<rect width="800" height="800" fill="white"/>
</clipPath>
</defs>
</svg>
