<svg width="800" height="800" viewBox="0 0 800 800" fill="none" xmlns="http://www.w3.org/2000/svg">
<g clip-path="url(#clip0_35_24)">
<path fill-rule="evenodd" clip-rule="evenodd" d="M687.869 0H112.149C102.531 0 94.7249 7.8059 94.7249 17.4239V74C94.7249 85.0457 103.679 94 114.725 94H685.284C696.329 94 705.284 85.0457 705.284 74V17.4239C705.292 7.79719 697.478 0 687.869 0ZM114.725 423C103.679 423 94.7249 414.046 94.7249 403V331H155V343C155 354.046 163.954 363 175 363H185V423H114.725ZM155 291H94.7249V218C94.7249 206.954 103.679 198 114.725 198H175V259C163.954 259 155 267.954 155 279V291ZM625 423H685.284C696.329 423 705.284 414.046 705.284 403V331H666V343C666 354.046 657.046 363 646 363H625V423ZM666 291V279C666 267.954 657.046 259 646 259H615V198H685.284C696.329 198 705.284 206.954 705.284 218V291H666ZM585 423V363H545V423H585ZM535 198.17H575V258.788H535V198.17ZM505 423V363H465V423H505ZM455 198H495V259H455V198ZM425 423V363H385V423H425ZM375 198.17H415V258.788H375V198.17ZM345 423V363H305V423H345ZM295 198H335V259H295V198ZM265 423V363H225V423H265ZM215 198.17H255V258.788H215V198.17ZM94.7249 547C94.7249 535.954 103.679 527 114.725 527H195.616C195.981 527.031 196.351 527.046 196.724 527.046H274.409C274.782 527.046 275.152 527.031 275.517 527H360.054C360.419 527.031 360.789 527.046 361.162 527.046H438.846C439.22 527.046 439.59 527.031 439.955 527H524.491C524.857 527.031 525.227 527.046 525.6 527.046H603.284C603.658 527.046 604.027 527.031 604.393 527H685.284C696.329 527 705.284 535.954 705.284 547V782.576C705.284 792.194 697.478 800 687.86 800H519.066C509.448 800 501.642 792.194 501.642 782.576V663.934C501.642 652.889 492.688 643.934 481.642 643.934H318.366C307.321 643.934 298.366 652.889 298.366 663.934V782.576C298.366 792.194 290.561 800 280.943 800H112.149C102.531 800 94.7249 792.194 94.7249 782.576V547Z" fill="#FC7F7F"/>
</g>
<defs>
<clipPath id="clip0_35_24">
<rect width="800" height="800" fill="white"/>
</clipPath>
</defs>
</svg>
