<svg width="800" height="800" viewBox="0 0 800 800" fill="none" xmlns="http://www.w3.org/2000/svg">
<g clip-path="url(#clip0_35_6)">
<path d="M687.869 0H112.149C102.531 0 94.7249 7.8059 94.7249 17.4239V74C94.7249 85.0457 103.679 94 114.725 94H685.284C696.33 94 705.284 85.0457 705.284 74V17.4239C705.293 7.79719 697.478 0 687.869 0Z" fill="#FC7F7F"/>
<path fill-rule="evenodd" clip-rule="evenodd" d="M114.725 423C103.679 423 94.7249 414.046 94.7249 403V218C94.7249 206.954 103.679 198 114.725 198H192.99C194.065 198 195.138 198.119 196.213 198.161C196.383 198.167 196.553 198.17 196.724 198.17H274.409C274.58 198.17 274.75 198.167 274.92 198.161C275.995 198.119 277.068 198 278.143 198H357.427C358.503 198 359.576 198.119 360.651 198.161C360.821 198.167 360.991 198.17 361.162 198.17H438.847C439.018 198.17 439.188 198.167 439.358 198.161C440.433 198.119 441.505 198 442.581 198H521.865C522.941 198 524.014 198.119 525.089 198.161C525.259 198.167 525.429 198.17 525.6 198.17H603.284C603.456 198.17 603.626 198.167 603.795 198.161C604.87 198.119 605.943 198 607.019 198H685.284C696.33 198 705.284 206.954 705.284 218V403C705.284 414.046 696.33 423 685.284 423H114.725ZM287.477 349.54C287.477 356.763 281.631 362.608 274.409 362.608H196.724C189.502 362.608 183.656 356.763 183.656 349.54V271.856C183.656 264.634 189.502 258.788 196.724 258.788H274.409C281.631 258.788 287.477 264.634 287.477 271.856V349.54ZM451.914 349.54C451.914 356.763 446.069 362.608 438.847 362.608H361.162C353.94 362.608 348.094 356.763 348.094 349.54V271.856C348.094 264.634 353.94 258.788 361.162 258.788H438.847C446.069 258.788 451.914 264.634 451.914 271.856V349.54ZM616.352 349.54C616.352 356.763 610.507 362.608 603.284 362.608H525.6C518.378 362.608 512.532 356.763 512.532 349.54V271.856C512.532 264.634 518.378 258.788 525.6 258.788H603.284C610.507 258.788 616.352 264.634 616.352 271.856V349.54Z" fill="#FC7F7F"/>
<path d="M114.725 527C103.679 527 94.7249 535.954 94.7249 547V782.576C94.7249 792.194 102.531 800 112.149 800H280.943C290.561 800 298.367 792.194 298.367 782.576V663.934C298.367 652.889 307.321 643.934 318.367 643.934H481.642C492.688 643.934 501.642 652.889 501.642 663.934V782.576C501.642 792.194 509.448 800 519.066 800H687.86C697.478 800 705.284 792.194 705.284 782.576V547C705.284 535.954 696.33 527 685.284 527H604.393C604.028 527.031 603.658 527.046 603.284 527.046H525.6C525.227 527.046 524.857 527.031 524.491 527H439.955C439.59 527.031 439.22 527.046 438.847 527.046H361.162C360.789 527.046 360.419 527.031 360.054 527H275.517C275.152 527.031 274.782 527.046 274.409 527.046H196.724C196.351 527.046 195.981 527.031 195.616 527H114.725Z" fill="#FC7F7F"/>
</g>
<defs>
<clipPath id="clip0_35_6">
<rect width="800" height="800" fill="white"/>
</clipPath>
</defs>
</svg>
